<svg width="114" height="86" viewBox="0 0 114 86" fill="none" xmlns="http://www.w3.org/2000/svg">
<path d="M0 9.17614V3.09091H28.6705V9.17614H17.983V38H10.6875V9.17614H0Z" fill="black"/>
<path d="M54.946 14.375C54.7074 13.5455 54.3722 12.8125 53.9403 12.1761C53.5085 11.5284 52.9801 10.983 52.3551 10.5398C51.7415 10.0852 51.0369 9.73864 50.2415 9.5C49.4574 9.26136 48.5881 9.14205 47.6335 9.14205C45.8494 9.14205 44.2812 9.58523 42.929 10.4716C41.5881 11.358 40.5426 12.6477 39.7926 14.3409C39.0426 16.0227 38.6676 18.0795 38.6676 20.5114C38.6676 22.9432 39.0369 25.0114 39.7756 26.7159C40.5142 28.4205 41.5597 29.7216 42.9119 30.6193C44.2642 31.5057 45.8608 31.9489 47.7017 31.9489C49.3722 31.9489 50.7983 31.6534 51.9801 31.0625C53.1733 30.4602 54.0824 29.6136 54.7074 28.5227C55.3438 27.4318 55.6619 26.142 55.6619 24.6534L48.1619 24.875V19.3182H62.7699V23.7159C62.7699 26.7841 62.1222 29.4205 60.8267 31.625C59.5312 33.8182 57.7472 35.5114 55.4744 36.7045C53.2017 37.8864 50.5994 38.4773 47.6676 38.4773C44.3949 38.4773 41.5199 37.7557 39.0426 36.3125C36.5653 34.858 34.6335 32.7955 33.2472 30.125C31.8722 27.4432 31.1847 24.2614 31.1847 20.5795C31.1847 17.75 31.5937 15.2273 32.4119 13.0114C33.2415 10.7841 34.4006 8.89773 35.8892 7.35227C37.3778 5.80682 39.1108 4.63068 41.0881 3.82386C43.0653 3.01704 45.2074 2.61364 47.5142 2.61364C49.4915 2.61364 51.3324 2.90341 53.0369 3.48295C54.7415 4.05114 56.2528 4.85795 57.571 5.90341C58.9006 6.94886 59.9858 8.19318 60.8267 9.63636C61.6676 11.0682 62.2074 12.6477 62.446 14.375H54.946Z" fill="black"/>
<path d="M90.5327 38V3.09091H113.646V9.17614H97.9134V17.4943H112.112V23.5795H97.9134V38H90.5327Z" fill="black"/>
<path d="M83.4361 6C83.4361 9.31371 80.7498 12 77.4361 12C74.1224 12 71.4361 9.31371 71.4361 6C71.4361 2.68629 74.1224 0 77.4361 0C80.7498 0 83.4361 2.68629 83.4361 6Z" fill="#FF0000"/>
<path d="M73.4361 16H81.4361V86H73.4361V16Z" fill="#FF0000"/>
<path d="M54.4361 43C63.4181 43 68.454 43 77.4361 43H100.436V51H77.4361H54.4361V43Z" fill="#FF0000"/>
</svg>
